<?xml version="1.0" encoding="UTF-8" standalone="no"?><svg xmlns="http://www.w3.org/2000/svg" xmlns:xlink="http://www.w3.org/1999/xlink" contentStyleType="text/css" height="332px" preserveAspectRatio="none" style="width:450px;height:332px;background:#FFFFFF;" version="1.1" viewBox="0 0 450 332" width="450px" zoomAndPan="magnify"><defs/><g><!--MD5=[2ce0c9fb7f55b1e256ab28a8ea6b25ec]
class Customer--><g id="elem_Customer"><rect codeLine="1" fill="#F1F1F1" height="113.1875" id="Customer" rx="2.5" ry="2.5" style="stroke:#181818;stroke-width:0.5;" width="100" x="7" y="15"/><ellipse cx="22" cy="31" fill="#ADD1B2" rx="11" ry="11" style="stroke:#181818;stroke-width:1.0;"/><path d="M26.1094,37 L18.3906,37 L18.3906,24.6094 L26.1094,24.6094 L26.1094,26.7656 L20.8438,26.7656 L20.8438,29.4375 L25.6094,29.4375 L25.6094,31.5938 L20.8438,31.5938 L20.8438,34.8438 L26.1094,34.8438 L26.1094,37 Z " fill="#000000"/><text fill="#000000" font-family="sans-serif" font-size="14" lengthAdjust="spacing" textLength="68" x="36" y="35.8467">Customer</text><line style="stroke:#181818;stroke-width:0.5;" x1="8" x2="106" y1="47" y2="47"/><ellipse cx="18" cy="60.6484" fill="#84BE84" rx="3" ry="3" style="stroke:#038048;stroke-width:1.0;"/><text fill="#000000" font-family="sans-serif" font-size="14" lengthAdjust="spacing" textLength="44" x="27" y="63.9951">id (PK)</text><line style="stroke:#181818;stroke-width:1.0;" x1="8" x2="106" y1="71.2969" y2="71.2969"/><text fill="#000000" font-family="sans-serif" font-size="14" lengthAdjust="spacing" textLength="39" x="13" y="88.292">name</text><text fill="#000000" font-family="sans-serif" font-size="14" lengthAdjust="spacing" textLength="27" x="13" y="104.5889">mail</text><text fill="#000000" font-family="sans-serif" font-size="14" lengthAdjust="spacing" textLength="67" x="13" y="120.8857">password</text></g><!--MD5=[cf4d6237fcae255cd2e1656cf84a30e2]
class Order--><g id="elem_Order"><rect codeLine="9" fill="#F1F1F1" height="113.1875" id="Order" rx="2.5" ry="2.5" style="stroke:#181818;stroke-width:0.5;" width="139" x="142.5" y="15"/><ellipse cx="188.25" cy="31" fill="#ADD1B2" rx="11" ry="11" style="stroke:#181818;stroke-width:1.0;"/><path d="M192.3594,37 L184.6406,37 L184.6406,24.6094 L192.3594,24.6094 L192.3594,26.7656 L187.0938,26.7656 L187.0938,29.4375 L191.8594,29.4375 L191.8594,31.5938 L187.0938,31.5938 L187.0938,34.8438 L192.3594,34.8438 L192.3594,37 Z " fill="#000000"/><text fill="#000000" font-family="sans-serif" font-size="14" lengthAdjust="spacing" textLength="39" x="208.75" y="35.8467">Order</text><line style="stroke:#181818;stroke-width:0.5;" x1="143.5" x2="280.5" y1="47" y2="47"/><ellipse cx="153.5" cy="60.6484" fill="#84BE84" rx="3" ry="3" style="stroke:#038048;stroke-width:1.0;"/><text fill="#000000" font-family="sans-serif" font-size="14" lengthAdjust="spacing" textLength="44" x="162.5" y="63.9951">id (PK)</text><line style="stroke:#181818;stroke-width:1.0;" x1="143.5" x2="280.5" y1="71.2969" y2="71.2969"/><polygon fill="#FFFF44" points="153.5,79.9453,157.5,83.9453,153.5,87.9453,149.5,83.9453" style="stroke:#B38D22;stroke-width:1.0;"/><text fill="#000000" font-family="sans-serif" font-size="14" lengthAdjust="spacing" textLength="113" x="162.5" y="88.292">customer id (FK)</text><text fill="#000000" font-family="sans-serif" font-size="14" lengthAdjust="spacing" textLength="72" x="162.5" y="104.5889">order date</text><text fill="#000000" font-family="sans-serif" font-size="14" lengthAdjust="spacing" textLength="53" x="162.5" y="120.8857">amount</text></g><!--MD5=[a894570104858a48d10e650672270519]
class OrderDetail--><g id="elem_OrderDetail"><rect codeLine="17" fill="#F1F1F1" height="129.4844" id="OrderDetail" rx="2.5" ry="2.5" style="stroke:#181818;stroke-width:0.5;" width="127" x="316.5" y="7"/><ellipse cx="337.35" cy="23" fill="#ADD1B2" rx="11" ry="11" style="stroke:#181818;stroke-width:1.0;"/><path d="M341.4594,29 L333.7406,29 L333.7406,16.6094 L341.4594,16.6094 L341.4594,18.7656 L336.1938,18.7656 L336.1938,21.4375 L340.9594,21.4375 L340.9594,23.5938 L336.1938,23.5938 L336.1938,26.8438 L341.4594,26.8438 L341.4594,29 Z " fill="#000000"/><text fill="#000000" font-family="sans-serif" font-size="14" lengthAdjust="spacing" textLength="82" x="352.65" y="27.8467">Order Detail</text><line style="stroke:#181818;stroke-width:0.5;" x1="317.5" x2="442.5" y1="39" y2="39"/><ellipse cx="327.5" cy="52.6484" fill="#84BE84" rx="3" ry="3" style="stroke:#038048;stroke-width:1.0;"/><text fill="#000000" font-family="sans-serif" font-size="14" lengthAdjust="spacing" textLength="44" x="336.5" y="55.9951">id (PK)</text><line style="stroke:#181818;stroke-width:1.0;" x1="317.5" x2="442.5" y1="63.2969" y2="63.2969"/><polygon fill="#FFFF44" points="327.5,71.9453,331.5,75.9453,327.5,79.9453,323.5,75.9453" style="stroke:#B38D22;stroke-width:1.0;"/><text fill="#000000" font-family="sans-serif" font-size="14" lengthAdjust="spacing" textLength="88" x="336.5" y="80.292">order id  (FK)</text><polygon fill="#FFFF44" points="327.5,88.2422,331.5,92.2422,327.5,96.2422,323.5,92.2422" style="stroke:#B38D22;stroke-width:1.0;"/><text fill="#000000" font-family="sans-serif" font-size="14" lengthAdjust="spacing" textLength="101" x="336.5" y="96.5889">product id (FK)</text><text fill="#000000" font-family="sans-serif" font-size="14" lengthAdjust="spacing" textLength="53" x="336.5" y="112.8857">amount</text><text fill="#000000" font-family="sans-serif" font-size="14" lengthAdjust="spacing" textLength="55" x="336.5" y="129.1826">quantity</text></g><!--MD5=[8a78b94ac034f628eee9959bc26304be]
class Brand--><g id="elem_Brand"><rect codeLine="26" fill="#F1F1F1" height="80.5938" id="Brand" rx="2.5" ry="2.5" style="stroke:#181818;stroke-width:0.5;" width="73" x="215.5" y="220"/><ellipse cx="230.5" cy="236" fill="#ADD1B2" rx="11" ry="11" style="stroke:#181818;stroke-width:1.0;"/><path d="M234.6094,242 L226.8906,242 L226.8906,229.6094 L234.6094,229.6094 L234.6094,231.7656 L229.3438,231.7656 L229.3438,234.4375 L234.1094,234.4375 L234.1094,236.5938 L229.3438,236.5938 L229.3438,239.8438 L234.6094,239.8438 L234.6094,242 Z " fill="#000000"/><text fill="#000000" font-family="sans-serif" font-size="14" lengthAdjust="spacing" textLength="41" x="244.5" y="240.8467">Brand</text><line style="stroke:#181818;stroke-width:0.5;" x1="216.5" x2="287.5" y1="252" y2="252"/><ellipse cx="226.5" cy="265.6484" fill="#84BE84" rx="3" ry="3" style="stroke:#038048;stroke-width:1.0;"/><text fill="#000000" font-family="sans-serif" font-size="14" lengthAdjust="spacing" textLength="44" x="235.5" y="268.9951">id (PK)</text><line style="stroke:#181818;stroke-width:1.0;" x1="216.5" x2="287.5" y1="276.2969" y2="276.2969"/><text fill="#000000" font-family="sans-serif" font-size="14" lengthAdjust="spacing" textLength="39" x="221.5" y="293.292">name</text></g><!--MD5=[72136138052d025cffdce3c22fbd185f]
class Product--><g id="elem_Product"><rect codeLine="32" fill="#F1F1F1" height="129.4844" id="Product" rx="2.5" ry="2.5" style="stroke:#181818;stroke-width:0.5;" width="113" x="323.5" y="196"/><ellipse cx="350.65" cy="212" fill="#ADD1B2" rx="11" ry="11" style="stroke:#181818;stroke-width:1.0;"/><path d="M354.7594,218 L347.0406,218 L347.0406,205.6094 L354.7594,205.6094 L354.7594,207.7656 L349.4938,207.7656 L349.4938,210.4375 L354.2594,210.4375 L354.2594,212.5938 L349.4938,212.5938 L349.4938,215.8438 L354.7594,215.8438 L354.7594,218 Z " fill="#000000"/><text fill="#000000" font-family="sans-serif" font-size="14" lengthAdjust="spacing" textLength="54" x="367.35" y="216.8467">Product</text><line style="stroke:#181818;stroke-width:0.5;" x1="324.5" x2="435.5" y1="228" y2="228"/><ellipse cx="334.5" cy="241.6484" fill="#84BE84" rx="3" ry="3" style="stroke:#038048;stroke-width:1.0;"/><text fill="#000000" font-family="sans-serif" font-size="14" lengthAdjust="spacing" textLength="44" x="343.5" y="244.9951">id (PK)</text><line style="stroke:#181818;stroke-width:1.0;" x1="324.5" x2="435.5" y1="252.2969" y2="252.2969"/><polygon fill="#FFFF44" points="334.5,260.9453,338.5,264.9453,334.5,268.9453,330.5,264.9453" style="stroke:#B38D22;stroke-width:1.0;"/><text fill="#000000" font-family="sans-serif" font-size="14" lengthAdjust="spacing" textLength="87" x="343.5" y="269.292">brand id (FK)</text><text fill="#000000" font-family="sans-serif" font-size="14" lengthAdjust="spacing" textLength="39" x="343.5" y="285.5889">name</text><text fill="#000000" font-family="sans-serif" font-size="14" lengthAdjust="spacing" textLength="34" x="343.5" y="301.8857">price</text><text fill="#000000" font-family="sans-serif" font-size="14" lengthAdjust="spacing" textLength="55" x="343.5" y="318.1826">quantity</text></g><!--MD5=[135794f54b59c9e5883929d048383f81]
link Customer to Order--><g id="link_Customer_Order"><path codeLine="41" d="M107.25,71.5 C116.23,71.5 125.21,71.5 134.19,71.5 " fill="none" id="Customer-to-Order" style="stroke:#181818;stroke-width:1.0;"/><line style="stroke:#181818;stroke-width:1.0;" x1="134.44" x2="142.44" y1="71.5" y2="65.5"/><line style="stroke:#181818;stroke-width:1.0;" x1="134.44" x2="142.44" y1="71.5" y2="77.5"/><line style="stroke:#181818;stroke-width:1.0;" x1="134.44" x2="142.44" y1="71.5" y2="71.5"/><ellipse cx="128.44" cy="71.5" fill="none" rx="4" ry="4" style="stroke:#181818;stroke-width:1.0;"/></g><!--MD5=[9d1086e6121582a24d6fd76fc1ac13cb]
link Order to OrderDetail--><g id="link_Order_OrderDetail"><path codeLine="42" d="M289.67,71.5 C295.75,71.5 301.82,71.5 307.89,71.5 " fill="none" id="Order-OrderDetail" style="stroke:#181818;stroke-width:1.0;"/><line style="stroke:#181818;stroke-width:1.0;" x1="308.17" x2="316.17" y1="71.5" y2="65.5"/><line style="stroke:#181818;stroke-width:1.0;" x1="308.17" x2="316.17" y1="71.5" y2="77.5"/><line style="stroke:#181818;stroke-width:1.0;" x1="308.17" x2="316.17" y1="71.5" y2="71.5"/><line style="stroke:#181818;stroke-width:1.0;" x1="306.17" x2="306.17" y1="67.5" y2="75.5"/><line style="stroke:#181818;stroke-width:1.0;" x1="285.56" x2="285.56" y1="75.5" y2="67.5"/><line style="stroke:#181818;stroke-width:1.0;" x1="288.56" x2="288.56" y1="75.5" y2="67.5"/><line style="stroke:#181818;stroke-width:1.0;" x1="289.56" x2="281.56" y1="71.5" y2="71.5"/></g><!--MD5=[4c388c953adb8a4e4b7455534bd9e362]
link Brand to Product--><g id="link_Brand_Product"><path codeLine="43" d="M297.08,260.5 C303.13,260.5 309.18,260.5 315.23,260.5 " fill="none" id="Brand-Product" style="stroke:#181818;stroke-width:1.0;"/><line style="stroke:#181818;stroke-width:1.0;" x1="315.48" x2="323.48" y1="260.5" y2="254.5"/><line style="stroke:#181818;stroke-width:1.0;" x1="315.48" x2="323.48" y1="260.5" y2="266.5"/><line style="stroke:#181818;stroke-width:1.0;" x1="315.48" x2="323.48" y1="260.5" y2="260.5"/><line style="stroke:#181818;stroke-width:1.0;" x1="313.48" x2="313.48" y1="256.5" y2="264.5"/><line style="stroke:#181818;stroke-width:1.0;" x1="293" x2="293" y1="264.5" y2="256.5"/><line style="stroke:#181818;stroke-width:1.0;" x1="296" x2="296" y1="264.5" y2="256.5"/><line style="stroke:#181818;stroke-width:1.0;" x1="297" x2="289" y1="260.5" y2="260.5"/></g><!--MD5=[58d9c543a88d5370c4601925def904f1]
link OrderDetail to Product--><g id="link_OrderDetail_Product"><path codeLine="44" d="M380,144.3 C380,158.48 380,173.35 380,187.53 " fill="none" id="OrderDetail-Product" style="stroke:#181818;stroke-width:1.0;"/><line style="stroke:#181818;stroke-width:1.0;" x1="380" x2="386" y1="187.79" y2="195.79"/><line style="stroke:#181818;stroke-width:1.0;" x1="380" x2="374" y1="187.79" y2="195.79"/><line style="stroke:#181818;stroke-width:1.0;" x1="380" x2="380" y1="187.79" y2="195.79"/><line style="stroke:#181818;stroke-width:1.0;" x1="384" x2="376" y1="185.79" y2="185.79"/><line style="stroke:#181818;stroke-width:1.0;" x1="380" x2="374" y1="144.07" y2="136.07"/><line style="stroke:#181818;stroke-width:1.0;" x1="380" x2="386" y1="144.07" y2="136.07"/><line style="stroke:#181818;stroke-width:1.0;" x1="380" x2="380" y1="144.07" y2="136.07"/><line style="stroke:#181818;stroke-width:1.0;" x1="376" x2="384" y1="146.07" y2="146.07"/></g><!--MD5=[c9b4ca35430842fca280208496083827]
@startuml
entity Customer  {
  + id (PK)
  - -
  name
  mail
  password
}

entity Order  {
  + id (PK)
  - -
  # customer id (FK)
  order date
  amount
}

entity "Order Detail" as OrderDetail {
  + id (PK)
  - -
  # order id  (FK)
  # product id (FK)
  amount
  quantity
}

entity Brand {
  + id (PK)
  - -
  name
}

entity Product {
  + id (PK)
  - -
  # brand id (FK)
  name
  price
  quantity
}

Customer -right-o{ Order
Order ||-right-|{ OrderDetail
Brand ||-right-|{ Product
OrderDetail }|-down-|{ Product
@enduml

PlantUML version 1.2022.7(Mon Aug 22 17:01:30 UTC 2022)
(GPL source distribution)
Java Runtime: OpenJDK Runtime Environment
JVM: OpenJDK 64-Bit Server VM
Default Encoding: UTF-8
Language: en
Country: null
--></g></svg>